# xmcd
#
# Track frame offsets:
#	150
#	21519
#	41658
#	60128
#	82792
#	101696
#	113708
#	133385
#	159081
#	180322
#	209196
#	224271
#	244018
#
# Disc length: 3577 seconds
#
# Revision: 1
# Processed by: cddbd v1.4b41PL2 Copyright (c) Steve Scherf et al.
# Submitted via: audiograbber 1.80
#
DISCID=ac0df70d
DTITLE=Hamilton - Just Gimme One Night
DYEAR=1900
DGENRE=
TTITLE0=Ain't Nobody
TTITLE1=Just Your Fool
TTITLE2=Everyday Is Sunday
TTITLE3=Just Gimme One Night
TTITLE4=Gotta Give A Little Bit
TTITLE5=Slow Lover
TTITLE6=Everything
TTITLE7=Lucille
TTITLE8=He Got A Key
TTITLE9=A Woman Like You
TTITLE10=Temporarily Insane
TTITLE11=The Silence
TTITLE12=Everything (niteclub cut)
EXTD=
EXTT0=
EXTT1=
EXTT2=
EXTT3=
EXTT4=
EXTT5=
EXTT6=
EXTT7=
EXTT8=
EXTT9=
EXTT10=
EXTT11=
EXTT12=
PLAYORDER=
